<mxfile host="drawio-plugin" modified="2021-03-29T08:02:30.138Z" agent="5.0 (Macintosh; Intel Mac OS X 10_15_6) AppleWebKit/537.36 (KHTML, like Gecko) Chrome/84.0.4147.105 Safari/537.36" etag="1jNLXsmAjHAEoW7xY-D_" version="13.7.9" type="embed"><diagram id="DYDGdA-885xeRSgDoeYv" name="Page-1"><mxGraphModel dx="2588" dy="428" grid="1" gridSize="10" guides="1" tooltips="1" connect="1" arrows="1" fold="1" page="1" pageScale="1" pageWidth="827" pageHeight="1169" background="#ffffff" math="0" shadow="0"><root><mxCell id="0"/><mxCell id="1" parent="0"/><mxCell id="oZyTMZYtAXs1u3VE4Ej2-16" value="Data Service (DataController)" style="rounded=0;whiteSpace=wrap;html=1;" parent="1" vertex="1"><mxGeometry x="-675" y="510" width="120" height="60" as="geometry"/></mxCell><mxCell id="oZyTMZYtAXs1u3VE4Ej2-29" value="No" style="edgeStyle=orthogonalEdgeStyle;rounded=0;orthogonalLoop=1;jettySize=auto;html=1;exitX=0;exitY=0.5;exitDx=0;exitDy=0;" parent="1" source="oZyTMZYtAXs1u3VE4Ej2-19" target="oZyTMZYtAXs1u3VE4Ej2-21" edge="1"><mxGeometry relative="1" as="geometry"/></mxCell><mxCell id="oZyTMZYtAXs1u3VE4Ej2-19" value="Request Authoriseded" style="rhombus;whiteSpace=wrap;html=1;" parent="1" vertex="1"><mxGeometry x="-669.91" y="690" width="110" height="90" as="geometry"/></mxCell><mxCell id="oZyTMZYtAXs1u3VE4Ej2-20" style="edgeStyle=orthogonalEdgeStyle;rounded=0;orthogonalLoop=1;jettySize=auto;html=1;exitX=0.5;exitY=1;exitDx=0;exitDy=0;entryX=0.5;entryY=0;entryDx=0;entryDy=0;" parent="1" source="oZyTMZYtAXs1u3VE4Ej2-21" target="oZyTMZYtAXs1u3VE4Ej2-25" edge="1"><mxGeometry relative="1" as="geometry"><mxPoint x="-880" y="1110" as="targetPoint"/></mxGeometry></mxCell><mxCell id="oZyTMZYtAXs1u3VE4Ej2-21" value="Throw Forbidden exception" style="rounded=0;whiteSpace=wrap;html=1;" parent="1" vertex="1"><mxGeometry x="-860" y="900" width="120" height="60" as="geometry"/></mxCell><mxCell id="oZyTMZYtAXs1u3VE4Ej2-23" value="Read" style="rounded=0;whiteSpace=wrap;html=1;" parent="1" vertex="1"><mxGeometry x="-669.91" y="900" width="120" height="60" as="geometry"/></mxCell><mxCell id="oZyTMZYtAXs1u3VE4Ej2-25" value="&lt;div&gt;&lt;span&gt;Send exception to Kafka&lt;/span&gt;&lt;/div&gt;&lt;div&gt;&lt;span&gt;&quot;error-topic&quot;&lt;br&gt;&lt;/span&gt;&lt;/div&gt;" style="rounded=1;whiteSpace=wrap;html=1;fillColor=#E1D5E7;" parent="1" vertex="1"><mxGeometry x="-860" y="1050" width="120" height="60" as="geometry"/></mxCell><mxCell id="oZyTMZYtAXs1u3VE4Ej2-27" value="Token,&lt;br&gt;LeafResourceId" style="edgeStyle=orthogonalEdgeStyle;rounded=1;orthogonalLoop=1;jettySize=auto;html=1;exitX=0.5;exitY=1;exitDx=0;exitDy=0;entryX=0.5;entryY=0;entryDx=0;entryDy=0;" parent="1" source="oZyTMZYtAXs1u3VE4Ej2-26" target="oZyTMZYtAXs1u3VE4Ej2-16" edge="1"><mxGeometry relative="1" as="geometry"/></mxCell><mxCell id="oZyTMZYtAXs1u3VE4Ej2-26" value="&lt;div&gt;&lt;span&gt;Client Request&amp;nbsp;&lt;/span&gt;&lt;br&gt;&lt;/div&gt;" style="rounded=1;whiteSpace=wrap;html=1;fillColor=#D5E8D4;" parent="1" vertex="1"><mxGeometry x="-675" y="360" width="120" height="60" as="geometry"/></mxCell><mxCell id="2" value="" style="endArrow=classic;html=1;entryX=0.5;entryY=0;entryDx=0;entryDy=0;exitX=0.5;exitY=1;exitDx=0;exitDy=0;" parent="1" source="oZyTMZYtAXs1u3VE4Ej2-16" target="oZyTMZYtAXs1u3VE4Ej2-19" edge="1"><mxGeometry width="50" height="50" relative="1" as="geometry"><mxPoint x="-620" y="620" as="sourcePoint"/><mxPoint x="-570" y="570" as="targetPoint"/></mxGeometry></mxCell><mxCell id="3" style="edgeStyle=orthogonalEdgeStyle;rounded=0;orthogonalLoop=1;jettySize=auto;html=1;exitX=0.5;exitY=1;exitDx=0;exitDy=0;entryX=0;entryY=0.5;entryDx=0;entryDy=0;" parent="1" source="oZyTMZYtAXs1u3VE4Ej2-25" target="4" edge="1"><mxGeometry relative="1" as="geometry"><mxPoint x="-800" y="1460" as="targetPoint"/><mxPoint x="-800" y="1180" as="sourcePoint"/><Array as="points"><mxPoint x="-800" y="1460"/></Array></mxGeometry></mxCell><mxCell id="4" value="&lt;div&gt;HTTP Response&lt;/div&gt;" style="rounded=1;whiteSpace=wrap;html=1;fillColor=#D5E8D4;" parent="1" vertex="1"><mxGeometry x="-664.91" y="1430" width="120" height="60" as="geometry"/></mxCell><mxCell id="5" value="Context, &lt;br&gt;User, &lt;br&gt;Resource,&lt;br&gt;Rules" style="edgeStyle=orthogonalEdgeStyle;rounded=0;orthogonalLoop=1;jettySize=auto;html=1;exitX=0.5;exitY=1;exitDx=0;exitDy=0;" parent="1" source="oZyTMZYtAXs1u3VE4Ej2-19" edge="1"><mxGeometry relative="1" as="geometry"><mxPoint x="-610" y="830" as="sourcePoint"/><mxPoint x="-610" y="900" as="targetPoint"/></mxGeometry></mxCell><mxCell id="7" value="Read&lt;br&gt;Successful" style="rhombus;whiteSpace=wrap;html=1;" parent="1" vertex="1"><mxGeometry x="-664.91" y="1030" width="110" height="90" as="geometry"/></mxCell><mxCell id="9" value="" style="endArrow=classic;html=1;entryX=0.5;entryY=0;entryDx=0;entryDy=0;exitX=0.5;exitY=1;exitDx=0;exitDy=0;" parent="1" source="oZyTMZYtAXs1u3VE4Ej2-23" target="7" edge="1"><mxGeometry width="50" height="50" relative="1" as="geometry"><mxPoint x="-610" y="990" as="sourcePoint"/><mxPoint x="-609.9099999999999" y="1110" as="targetPoint"/></mxGeometry></mxCell><mxCell id="10" value="Throw Read exception" style="rounded=0;whiteSpace=wrap;html=1;" parent="1" vertex="1"><mxGeometry x="-450" y="1045" width="120" height="60" as="geometry"/></mxCell><mxCell id="12" value="No" style="edgeStyle=orthogonalEdgeStyle;rounded=0;orthogonalLoop=1;jettySize=auto;html=1;entryX=0;entryY=0.5;entryDx=0;entryDy=0;exitX=1;exitY=0.5;exitDx=0;exitDy=0;" parent="1" source="7" target="10" edge="1"><mxGeometry relative="1" as="geometry"><mxPoint x="-550" y="1080" as="sourcePoint"/><mxPoint x="-650.0900000000001" y="1225" as="targetPoint"/></mxGeometry></mxCell><mxCell id="15" value="&lt;div&gt;&lt;span&gt;Send exception to Kafka&lt;/span&gt;&lt;/div&gt;&lt;div&gt;&lt;span&gt;&quot;error-topic&quot;&lt;br&gt;&lt;/span&gt;&lt;/div&gt;" style="rounded=1;whiteSpace=wrap;html=1;fillColor=#E1D5E7;" parent="1" vertex="1"><mxGeometry x="-450" y="1220" width="120" height="60" as="geometry"/></mxCell><mxCell id="16" style="edgeStyle=orthogonalEdgeStyle;rounded=0;orthogonalLoop=1;jettySize=auto;html=1;exitX=0.5;exitY=1;exitDx=0;exitDy=0;" parent="1" source="15" edge="1"><mxGeometry relative="1" as="geometry"><mxPoint x="-540" y="1460" as="targetPoint"/><mxPoint x="-390" y="1330" as="sourcePoint"/><Array as="points"><mxPoint x="-390" y="1460"/></Array></mxGeometry></mxCell><mxCell id="17" style="edgeStyle=orthogonalEdgeStyle;rounded=0;orthogonalLoop=1;jettySize=auto;html=1;exitX=0.5;exitY=1;exitDx=0;exitDy=0;" parent="1" source="10" edge="1"><mxGeometry relative="1" as="geometry"><mxPoint x="-390" y="1220" as="targetPoint"/><mxPoint x="-390" y="1140" as="sourcePoint"/><Array as="points"/></mxGeometry></mxCell><mxCell id="18" value="&lt;div&gt;&lt;span&gt;Send success to Kafka&lt;/span&gt;&lt;/div&gt;&lt;div&gt;&lt;span&gt;&quot;success-topic&quot;&lt;br&gt;&lt;/span&gt;&lt;/div&gt;" style="rounded=1;whiteSpace=wrap;html=1;fillColor=#E1D5E7;" parent="1" vertex="1"><mxGeometry x="-664.91" y="1300" width="120" height="60" as="geometry"/></mxCell><mxCell id="19" style="edgeStyle=orthogonalEdgeStyle;rounded=0;orthogonalLoop=1;jettySize=auto;html=1;exitX=0.5;exitY=1;exitDx=0;exitDy=0;entryX=0.5;entryY=0;entryDx=0;entryDy=0;" parent="1" source="7" target="22" edge="1"><mxGeometry relative="1" as="geometry"><mxPoint x="-610" y="1220" as="targetPoint"/><mxPoint x="-610" y="1160" as="sourcePoint"/><Array as="points"/></mxGeometry></mxCell><mxCell id="20" style="edgeStyle=orthogonalEdgeStyle;rounded=0;orthogonalLoop=1;jettySize=auto;html=1;exitX=0.5;exitY=1;exitDx=0;exitDy=0;entryX=0.5;entryY=0;entryDx=0;entryDy=0;" parent="1" source="18" target="4" edge="1"><mxGeometry relative="1" as="geometry"><mxPoint x="-650" y="1440" as="targetPoint"/><mxPoint x="-650" y="1330" as="sourcePoint"/><Array as="points"><mxPoint x="-605" y="1390"/><mxPoint x="-605" y="1390"/></Array></mxGeometry></mxCell><mxCell id="22" value="&lt;div&gt;Create&amp;nbsp;&lt;/div&gt;&lt;div&gt;Data Stream&lt;/div&gt;" style="rounded=1;whiteSpace=wrap;html=1;" parent="1" vertex="1"><mxGeometry x="-669.91" y="1170" width="120" height="60" as="geometry"/></mxCell><mxCell id="24" style="edgeStyle=orthogonalEdgeStyle;rounded=0;orthogonalLoop=1;jettySize=auto;html=1;exitX=0.5;exitY=1;exitDx=0;exitDy=0;" parent="1" source="22" edge="1"><mxGeometry relative="1" as="geometry"><mxPoint x="-610" y="1300" as="targetPoint"/><mxPoint x="-610" y="1260" as="sourcePoint"/><Array as="points"><mxPoint x="-610" y="1265"/><mxPoint x="-610" y="1265"/></Array></mxGeometry></mxCell></root></mxGraphModel></diagram></mxfile>